<svg width="23" height="23" viewBox="0 0 23 23" fill="none" xmlns="http://www.w3.org/2000/svg">
<path d="M12.6295 0.691235L21.5662 9.1811C22.1624 9.74748 22.5 10.5338 22.5 11.3561V19.9975C22.5 21.3782 21.3807 22.4975 20 22.4975H14C13.4477 22.4975 13 22.0498 13 21.4975V15.9973C13 15.1689 12.3284 14.4973 11.5 14.4973C10.6716 14.4973 10 15.1689 10 15.9973V21.4975C10 22.0498 9.55228 22.4975 9 22.4975H3C1.61929 22.4975 0.5 21.3782 0.5 19.9975V11.3561C0.5 10.5338 0.83756 9.74748 1.43375 9.1811L10.3705 0.691235C11.0034 0.0899007 11.9966 0.0899007 12.6295 0.691235ZM11.5 2.37679L2.81125 10.6311C2.61252 10.8199 2.5 11.082 2.5 11.3561V19.9975C2.5 20.2736 2.72386 20.4975 3 20.4975H8V15.9973C8 14.0643 9.567 12.4973 11.5 12.4973C13.433 12.4973 15 14.0643 15 15.9973V20.4975H20C20.2761 20.4975 20.5 20.2736 20.5 19.9975V11.3561C20.5 11.082 20.3875 10.8199 20.1887 10.6311L11.5 2.37679Z" fill="#99A2AD"/>
</svg>
